<?xml version="1.0" standalone="no"?>
<!DOCTYPE svg PUBLIC "-//W3C//DTD SVG 20010904//EN" "http://www.w3.org/TR/2001/REC-SVG-20010904/DTD/svg10.dtd">
<!-- Created using Krita: https://krita.org -->
<svg xmlns="http://www.w3.org/2000/svg" 
    xmlns:xlink="http://www.w3.org/1999/xlink"
    xmlns:krita="http://krita.org/namespaces/svg/krita"
    xmlns:sodipodi="http://sodipodi.sourceforge.net/DTD/sodipodi-0.dtd"
    width="1084.32pt"
    height="961.2pt"
    viewBox="0 0 1084.32 961.2">
<defs/>
<path id="shape0" transform="matrix(0.72 0 0 0.72 0 0)" fill="#ee7868" stroke-opacity="0" stroke="#000000" stroke-width="0" stroke-linecap="square" stroke-linejoin="bevel" d="M0 0L1480 0L1480 957L0 957Z" sodipodi:nodetypes="ccccc"/><path id="shape1" transform="matrix(0.72 0 0 0.72 -1059.0264 -35.72784)" fill="#ff9f92" stroke-opacity="0" stroke="#000000" stroke-width="0" stroke-linecap="square" stroke-linejoin="bevel" d="M1608.41 515.892C1025.56 467.482 619.606 433.765 0 1174.09L67.39 1984.09L3150.54 1727.58L3006.81 0L2908.45 8.183C2740.16 331.09 2204.99 565.421 1617.34 516.634Z" sodipodi:nodetypes="cccccccc"/><path id="shape2" transform="matrix(0.72 0 0 0.72 -1111.7016 230.078557302984)" fill="#fa8372" stroke-opacity="0" stroke="#000000" stroke-width="0" stroke-linecap="square" stroke-linejoin="bevel" d="M1915.06 209.111C1374.66 -14.5655 998.276 -170.355 182.58 346.012L0 1138.04L3014.73 1833.02L3404.15 143.767L3307.97 121.596C3049.31 377.885 2468.18 438.033 1923.34 212.537Z" sodipodi:nodetypes="cccccccc"/><path id="shape3" transform="matrix(0.72 0 0 0.72 -1174.932 93.3674737475674)" fill="#e96856" fill-opacity="0.6" stroke-opacity="0" stroke="#000000" stroke-width="0" stroke-linecap="square" stroke-linejoin="bevel" d="M1991.18 442.037C1527.08 86.118 1203.85 -161.779 282.3 125.877L0 1350.47L3047.04 2072.48L3359.28 718.016C3043.1 898.623 2466.2 806.318 1998.28 447.489Z" sodipodi:nodetypes="ccccccc"/><path id="shape4" transform="matrix(0.72 0 0 0.72 -1147.4136 -96.9819118278872)" fill="#c42652" fill-opacity="0.2" stroke-opacity="0" stroke="#000000" stroke-width="0" stroke-linecap="square" stroke-linejoin="bevel" d="M3187.5 1371.58C2835.35 1464.21 2302 1225.73 1942.9 758.02L1937.44 750.915C1581.28 287.007 1333.22 -36.1029 368.63 3.2391L0 1602.29L3057.19 2307.05Z" sodipodi:nodetypes="ccccccc"/><path id="shape5" transform="matrix(0.72 0 0 0.72 -1261.3392 -294.41304)" fill="#a41c42" fill-opacity="0.2" stroke-opacity="0" stroke="#000000" stroke-width="0" stroke-linecap="square" stroke-linejoin="bevel" d="M3163.77 1935.84C2799.98 1951.55 2329.46 1605.24 2077.89 1071.93L2074.07 1063.83C1824.56 534.857 1650.79 166.431 699.85 0L0 1484.27L2837.75 2822.28Z" sodipodi:nodetypes="ccccccc"/><path id="shape6" transform="matrix(0.72 0 0 0.72 -1312.4376 -463.606559999999)" fill="#a41c42" fill-opacity="0.2" stroke-opacity="0" stroke="#000000" stroke-width="0" stroke-linecap="square" stroke-linejoin="bevel" d="M2939.09 2507.59C2583.63 2428.61 2218.77 1972.32 2113.8 1392.07L2112.21 1383.25C2008.12 807.731 1935.62 406.882 1060.15 0L0 1252.56L2394.75 3279.45Z" sodipodi:nodetypes="ccccccc"/><path id="shape01" transform="matrix(0.854222017772832 -1.15926905606599 1.15926905606599 0.854222017772832 833.497888143548 344.985718382827)" fill="#fd4f00" stroke-opacity="0" stroke="#000000" stroke-width="0" stroke-linecap="square" stroke-linejoin="bevel" d="M48.067 61.0196L47.061 60.8366C39.916 59.5076 35.401 55.1866 33.264 48.3896C31.927 44.1526 34.351 41.0346 38.794 40.8296C42.431 40.6596 44.923 42.7516 47.124 45.1846C49.963 48.3196 52.564 51.6706 55.352 54.8546C59.366 59.4376 64.096 62.3886 70.567 61.4776C76.368 60.6616 81.427 58.3336 85.825 54.5006C86.486 53.9246 87.212 53.4216 87.91 52.8856L87.47 52.3676C83.776 53.5176 80.01 53.9006 76.16 53.7076C70.337 53.4156 64.787 52.1976 59.822 49.0016C55.291 46.0836 51.949 42.1736 50.362 36.9516C49.079 32.7316 51.702 29.7806 56.077 30.3906C57.804 30.6326 59.258 31.4106 60.566 32.5126C61.628 33.4126 62.649 34.3626 63.733 35.2346C68.837 39.3366 75.968 39.5646 82.443 35.1106C71.795 35.0626 64.55 29.2036 58.187 21.7806C55.697 18.8756 53.266 15.9196 50.723 13.0586C45.804 7.52556 40.348 2.65156 32.879 0.986554C23.331 -1.13544 14.117 0.254554 5.273 4.30256C3.51 5.10956 1.817 6.05056 0 7.56256C0.9 7.56256 1.39 7.57256 1.88 7.56256C6.34 7.44556 9.682 9.42656 12.092 13.0746C13.846 15.7296 14.672 18.7316 15.302 21.8196C16.237 26.4036 15.752 31.0746 16.293 35.6806C17.68 47.5176 23.73 55.7776 34.994 60.0076C39.126 61.5596 43.362 62.0756 48.066 61.0176ZM19.596 7.01956C17.817 7.46756 16.395 6.74956 14.93 5.26656C17.44 4.64156 19.654 4.39856 22.033 4.30356C21.838 5.84956 20.926 6.68356 19.598 7.01956ZM77.928 76.1456C77.773 75.0046 76.798 74.5026 76.032 73.9076C72.648 71.2716 68.687 70.3376 64.489 70.2616C61.983 70.2146 59.503 70.0286 57.142 69.1496C56.058 68.7496 54.844 68.2296 54.874 66.8316C54.901 65.4096 56.137 65.0086 57.262 64.6726C58.182 64.4006 59.132 64.2226 60.179 63.9776C57.518 62.2716 54.918 62.0366 51.453 63.4306C45.997 65.6206 40.62 65.3626 35.183 63.4006C32.113 62.2906 29.388 60.5506 26.553 59.0106L26.475 59.0656L26.547 59.0116C26.477 58.7986 26.352 58.7926 26.188 58.9136L26.41 59.1086C28.761 62.9636 31.94 66.0656 35.531 68.7166C42.445 73.8196 49.996 76.8646 58.833 75.5146C61.6895 75.0767 64.5606 74.7405 67.441 74.5066C71.051 74.2146 74.488 75.2326 77.928 76.1456M61.268 20.8356C61.076 20.6976 60.892 20.3516 60.501 20.7096C63.682 25.0116 67.765 28.1796 72.683 30.1756C80.619 33.3966 88.674 33.9486 96.913 31.1056C103.31 28.8996 107.908 31.0546 110.297 37.2656C110.643 30.0566 106.401 24.8036 99.647 23.7756C95.847 23.1956 92.337 24.4556 88.78 25.4886C78.875 28.3606 69.668 26.9436 61.267 20.8356ZM110.635 48.9516C111.925 49.0586 113.217 49.1756 114.507 49.2886C111.591 46.7286 108.037 46.5236 104.44 46.7286C98.967 47.0386 95.023 50.1986 91.426 53.9686C88.256 57.2946 85.392 61.0236 80.666 62.3606C80.746 62.5026 80.766 62.5746 80.788 62.5746C81.424 62.5836 82.06 62.6126 82.695 62.5836C89.563 62.2736 96.033 60.8246 101.178 55.8396C102.8 54.2716 104.248 52.5286 105.814 50.8996C107.12 49.5396 108.701 48.7866 110.635 48.9496ZM94.681 40.4396C89.556 40.8886 85.105 43.0076 80.924 45.8036C77.704 47.9536 74.264 48.9716 70.395 48.3006C69.715 48.1806 69.029 48.0926 68.346 47.9906L68.323 48.2746C68.569 48.4026 68.806 48.5496 69.061 48.6526C69.706 48.9076 70.341 49.2146 71.011 49.3726C78.453 51.1426 85.579 50.2366 92.002 46.0866C96.051 43.4706 100.242 42.9746 104.785 43.6506C105.245 43.7206 105.702 43.8016 106.163 43.8466C106.589 43.8866 107.035 44.3096 107.612 43.8516C103.641 40.9826 99.362 40.0316 94.681 40.4396M76.366 23.0426C79.054 23.1356 81.73 22.7826 84.543 21.1126C83.718 21.1846 83.371 21.1846 83.035 21.2506C79.16 22.0226 75.684 21.1776 72.585 18.7296C71.45 17.8316 70.295 16.9546 69.143 16.0736C64.58 12.5856 59.346 11.4176 53.623 11.5176C53.714 11.7976 53.723 11.9916 53.821 12.0916C60.05 18.3886 67.256 22.7286 76.366 23.0416ZM121.436 55.3616C117.583 51.5386 112.41 51.0476 107.624 54.3826C110.792 54.5236 113.17 55.5346 115.098 57.5326C115.774 58.2478 116.494 58.9207 117.253 59.5476C120.17 61.8996 125.111 62.0126 128 59.8296C124.608 58.5066 124.608 58.5066 121.437 55.3616ZM83.052 84.6336C79.666 78.3276 73.973 76.9056 67.395 77.3286C69.3351 77.857 71.1704 78.7141 72.821 79.8626C74.353 80.9306 75.641 82.2506 76.911 83.6076C79.425 86.2926 83.351 87.9376 85.954 87.3816C84.759 86.6306 83.697 85.8346 83.052 84.6336M114.568 49.4186C114.568 49.3779 114.569 49.3366 114.572 49.2946L114.562 49.3056L114.572 49.2956L114.507 49.2876L114.545 49.3196L114.567 49.4166ZM78.114 76.2946L77.982 76.2186C77.9853 76.2465 77.9945 76.2734 78.009 76.2976C78.019 76.3126 78.079 76.2976 78.115 76.2946ZM77.982 76.2186L77.967 76.1576L77.952 76.1756L77.967 76.1576L77.927 76.1476L77.937 76.1936L77.98 76.2186Z" sodipodi:nodetypes="ccccccccccccccccccccccccccccccccccccccccccccccccccccccccccccccccccccccccccccccccccccccccccccccccccccccccccccccccccccccccccccccc"/><path id="shape02" transform="matrix(-0.239563009944383 -0.678976851053428 0.678976851053428 -0.239563009944383 206.373614327817 421.577220059669)" fill="#e01e5a" stroke-opacity="0" stroke="#000000" stroke-width="0" stroke-linecap="square" stroke-linejoin="bevel" d="M53.638 26.818C53.638 41.65 41.651 53.638 26.819 53.638C11.987 53.638 0 41.65 0 26.818C0 11.987 11.987 0 26.82 0L53.637 0ZM67.048 26.818C67.048 11.987 79.035 0 93.867 0C108.699 0 120.686 11.987 120.686 26.819L120.686 93.866C120.686 108.698 108.699 120.686 93.866 120.686C79.036 120.686 67.048 108.698 67.048 93.866Z" sodipodi:nodetypes="ccccccccccccc"/><path id="shape11" transform="matrix(-0.239563009944383 -0.678976851053428 0.678976851053428 -0.239563009944383 115.098501198447 453.936756323972)" fill="#36c5f0" stroke-opacity="0" stroke="#000000" stroke-width="0" stroke-linecap="square" stroke-linejoin="bevel" d="M94.07 53.638C79.238 53.638 67.25 41.651 67.25 26.819C67.25 11.987 79.239 0 94.07 0C108.901 0 120.889 11.987 120.889 26.819L120.889 53.639ZM94.07 67.251C108.902 67.251 120.889 79.238 120.889 94.07C120.889 108.902 108.902 120.889 94.069 120.889L26.82 120.889C11.987 120.889 0 108.902 0 94.069C0 79.239 11.987 67.251 26.819 67.251Z" sodipodi:nodetypes="ccccccccccccc"/><path id="shape21" transform="matrix(-0.239563009944383 -0.678976851053428 0.678976851053428 -0.239563009944383 82.8767972349084 362.613011903581)" fill="#2eb67d" stroke-opacity="0" stroke="#000000" stroke-width="0" stroke-linecap="square" stroke-linejoin="bevel" d="M67.048 94.07C67.048 79.238 79.035 67.25 93.866 67.25C108.697 67.25 120.686 79.238 120.686 94.07C120.686 108.902 108.698 120.889 93.866 120.889L67.048 120.889ZM53.638 94.07C53.638 108.902 41.65 120.889 26.818 120.889C11.987 120.889 0 108.902 0 94.069L0 26.82C0 11.987 11.987 0 26.818 0C41.649 0 53.637 11.987 53.637 26.819Z" sodipodi:nodetypes="ccccccccccccc"/><path id="shape31" transform="matrix(-0.239563009944383 -0.678976851053428 0.678976851053428 -0.239563009944383 174.200541655297 330.391307940042)" fill="#ecb22e" stroke-opacity="0" stroke="#000000" stroke-width="0" stroke-linecap="square" stroke-linejoin="bevel" d="M26.818 67.048C41.65 67.048 53.638 79.035 53.638 93.866C53.638 108.697 41.65 120.686 26.818 120.686C11.987 120.686 0 108.698 0 93.866L0 67.048ZM26.818 53.638C11.987 53.638 0 41.65 0 26.818C0 11.987 11.987 0 26.819 0L94.069 0C108.901 0 120.889 11.987 120.889 26.819C120.889 41.651 108.901 53.638 94.069 53.638Z" sodipodi:nodetypes="ccccccccccccc"/>
</svg>
